<?xml version="1.0" encoding="utf-8"?>
<svg xmlns="http://www.w3.org/2000/svg" viewBox="20.8734 110.4445 132.675 137.5643" width="132.675px" height="137.564px">
  <path d="M 140.988 185.697 C 131.259 187.154 122.127 190.176 112.424 186.779 C 106.083 184.56 102.042 176.83 103.139 172.388 C 104.948 165.054 108.561 160.782 117.059 160.062 C 123.843 159.487 130.861 159.463 137.308 157.606 C 151.466 153.526 162.801 139.876 164.298 123.606 C 166.041 104.669 155.688 89.824 141.107 83.195 C 135.666 80.72 129.209 79.633 123.161 79.427 C 108.064 78.911 92.936 79.265 77.82 79.263 C 68.721 79.262 62.817 74.032 62.155 66.459 C 61.331 57.038 69.043 51.131 77.187 51.025 C 92.454 50.826 107.742 50.537 122.992 51.08 C 137.852 51.61 151.865 55.275 164.227 64.248 C 179.157 75.087 188.507 89.403 191.71 107.248 C 195.584 128.83 190.636 148.274 175.418 164.818 C 166.029 175.024 155.256 182.763 140.988 185.697 Z" stroke="none" opacity="1.000000" fill="#7D59F3" style="" transform="matrix(0.9999999999999999, 0, 0, 0.9999999999999999, -39.42259979248047, 59.67679977416992)"/>
  <path d="M 60.296 101.691 C 61.942 93.86 67.225 89.181 74.941 89.922 C 82.941 90.691 87.43 94.664 88.242 102.24 C 88.631 105.872 88.315 109.578 88.315 113.251 C 88.315 130.369 87.944 147.499 88.508 164.599 C 88.717 170.941 89.014 176.651 84.109 181.478 C 77.442 188.041 63.545 186.271 60.402 174.144 C 60.43 173.084 60.495 172.67 60.75 171.936 C 61.074 170.87 61.327 170.125 61.328 169.378 C 61.353 148.3 61.364 127.221 61.317 106.143 C 61.315 104.976 60.807 103.809 60.476 102.404 C 60.377 102.008 60.336 101.85 60.296 101.691 Z" stroke="none" opacity="1.000000" fill="#DC5BD2" style="" transform="matrix(0.9999999999999999, 0, 0, 0.9999999999999999, -39.42259979248047, 59.67679977416992)"/>
</svg>