<svg version="1.1" id="Layer_1" xmlns="http://www.w3.org/2000/svg" xmlns:xlink="http://www.w3.org/1999/xlink" x="0px" y="0px"
	 width="100%" viewBox="0 0 548 392" enable-background="new 0 0 548 392" xml:space="preserve">
<path fill="#041241" opacity="1.000000" stroke="none" 
	d="
M549.000000,349.000000 
	C549.000000,363.662872 549.000000,378.325775 549.000000,392.991486 
	C366.384308,392.994324 183.768616,392.994324 1.076465,392.994324 
	C1.076465,262.418091 1.076465,131.836151 1.076465,1.127097 
	C183.666611,1.127097 366.333282,1.127097 549.000000,1.127097 
	C549.000000,50.424755 549.000000,99.745399 548.667847,149.539871 
	C547.672119,149.985001 547.008423,149.956299 546.283386,149.560028 
	C546.127625,148.453766 546.033264,147.715073 545.936707,146.633377 
	C545.377991,145.481628 544.931030,144.563538 544.248901,143.880127 
	C527.970642,127.570580 511.678375,111.274979 495.337158,95.028625 
	C494.469666,94.166168 493.150208,93.758354 491.794922,93.033707 
	C491.384674,92.857979 491.220703,92.787437 490.811768,92.440094 
	C488.313477,91.803673 486.060211,91.132889 483.806854,91.132492 
	C460.827057,91.128464 437.847198,91.302597 414.867432,91.292564 
	C376.233032,91.275696 337.598663,91.136887 298.964325,91.156815 
	C296.956970,91.157852 294.950134,92.162216 292.585175,92.908409 
	C291.780731,95.473381 290.947723,97.828873 290.944397,100.185547 
	C290.870300,152.678986 290.901154,205.172577 290.844635,257.666046 
	C290.842010,260.089325 290.211945,262.511963 289.605408,265.047424 
	C288.882782,265.760681 288.428833,266.361420 287.803101,267.228271 
	C286.220642,268.738312 284.809937,269.982239 283.041321,271.266571 
	C281.938324,271.653809 281.035095,271.834778 280.471649,272.372101 
	C270.273712,282.097015 260.101532,291.849243 249.982147,301.655792 
	C249.240494,302.374481 248.943375,303.551849 248.057999,305.246246 
	C250.550735,305.562256 252.424606,305.991302 254.301620,306.005585 
	C263.924316,306.078888 273.551117,305.908417 283.168732,306.142059 
	C285.683197,306.203125 288.169983,307.404541 290.733093,308.541626 
	C290.778961,331.029846 290.761230,353.058655 290.677673,375.376129 
	C293.240906,376.425873 295.868896,377.847321 298.499237,377.851715 
	C370.141083,377.971130 441.783142,377.946594 513.425171,377.940247 
	C515.090271,377.940094 516.814697,378.140381 518.410034,377.788086 
	C524.493042,376.444702 531.016663,375.950226 535.152893,369.980835 
	C535.268127,369.851776 535.572266,369.686707 535.928101,369.657776 
	C539.235291,365.865387 542.469543,362.283447 545.041138,358.276245 
	C546.831604,355.486328 547.712708,352.112823 549.000000,349.000000 
M262.752014,375.592163 
	C263.167664,373.530609 263.927704,371.471680 263.943420,369.407074 
	C264.049652,355.422546 264.016144,341.436768 263.991211,327.451447 
	C263.978394,320.269592 262.808838,319.064789 255.543610,319.042175 
	C238.894547,318.990295 222.245148,319.035736 205.596069,318.986206 
	C203.725571,318.980621 201.856125,318.618103 199.079163,318.325592 
	C200.522034,316.485291 201.167297,315.329651 202.107452,314.513885 
	C213.406509,304.709625 224.864807,295.085388 236.029922,285.131958 
	C241.309174,280.425598 246.048889,275.114075 251.292130,269.635468 
	C251.568710,269.441895 251.845306,269.248291 252.818848,268.966797 
	C255.815964,266.145630 258.813080,263.324493 261.912659,260.205231 
	C261.912659,260.205231 262.159851,260.009644 262.758484,259.560944 
	C263.172272,257.165680 263.943787,254.770920 263.947113,252.375107 
	C264.016968,201.906631 264.002960,151.438004 263.997925,100.969421 
	C263.996948,91.467896 263.550842,91.017563 254.222031,91.016785 
	C185.098389,91.011047 115.974182,91.143906 46.851753,90.852722 
	C37.299232,90.812485 32.354515,95.946854 27.715538,103.479874 
	C27.121471,103.975647 26.527403,104.471420 25.228521,105.045944 
	C22.808334,107.676109 20.388147,110.306267 17.693596,113.495041 
	C16.781267,114.323158 15.868937,115.151276 14.301001,116.159073 
	C8.167410,119.833687 4.855826,124.796753 4.919870,132.396652 
	C5.164832,161.465469 4.980491,190.537720 5.093308,219.608185 
	C5.101623,221.750641 6.196921,223.888870 6.901866,226.673126 
	C6.862582,227.105789 6.823298,227.538437 6.212198,228.451065 
	C5.815635,230.020432 5.076482,231.589066 5.073088,233.159286 
	C5.005051,264.636780 4.992450,296.114502 5.097077,327.591797 
	C5.103106,329.405518 6.202469,331.215637 6.926344,333.758057 
	C6.882634,334.496368 6.838923,335.234680 6.228068,336.437927 
	C3.415084,346.825562 6.992209,355.856812 12.813384,364.038849 
	C14.854799,366.908173 18.576683,368.581940 21.804779,370.863434 
	C21.804779,370.863434 21.984865,371.078430 22.208914,371.726349 
	C27.094025,377.320618 34.012569,377.847137 40.473919,377.866028 
	C112.372520,378.076294 184.271973,378.014252 256.171082,377.923035 
	C258.131317,377.920563 260.090118,376.768280 262.049103,376.048706 
	C262.049103,376.048706 262.152527,376.049164 262.752014,375.592163 
M142.462784,59.115376 
	C134.641464,59.120171 126.819397,59.190247 118.999153,59.101097 
	C115.312630,59.059074 113.367912,60.425945 113.490593,64.352516 
	C113.610039,68.175636 113.567955,72.008324 113.458130,75.832832 
	C113.343468,79.825119 115.102829,81.560913 119.149803,81.502426 
	C127.967697,81.375008 136.788742,81.468292 145.608505,81.467194 
	C155.879318,81.465912 155.890594,81.463974 155.888092,71.453377 
	C155.884735,57.974968 156.888779,59.148052 142.462784,59.115376 
M153.781723,31.201483 
	C153.871704,20.165184 147.937180,12.485614 138.000397,10.779671 
	C128.576965,9.161860 119.746971,14.423308 116.795891,23.414633 
	C113.314308,34.022293 119.249878,44.848396 130.273682,47.997276 
	C140.575104,50.939812 150.954788,43.869068 153.781723,31.201483 
z"/>
<path fill="#092864" opacity="1.000000" stroke="none" 
	d="
M549.000000,228.000000 
	C549.000000,264.020905 549.000000,300.041779 548.667603,336.522278 
	C547.671814,337.012817 547.008484,337.043762 546.231323,336.612366 
	C546.078369,300.896027 546.036865,265.642029 546.014587,230.388016 
	C546.014099,229.567322 546.229187,228.746506 546.675049,227.941727 
	C547.670898,227.971817 548.335449,227.985916 549.000000,228.000000 
z"/>
<path fill="#092864" opacity="1.000000" stroke="none" 
	d="
M549.000000,174.000000 
	C549.000000,190.687561 549.000000,207.375122 548.666870,224.521606 
	C547.669983,225.011719 547.006165,225.042923 546.229004,224.611511 
	C546.189941,207.407333 546.264160,190.665787 546.670410,173.940796 
	C547.668274,173.971573 548.334167,173.985794 549.000000,174.000000 
z"/>
<path fill="#092864" opacity="1.000000" stroke="none" 
	d="
M549.000000,348.545898 
	C547.712708,352.112823 546.831604,355.486328 545.041138,358.276245 
	C542.469543,362.283447 539.235291,365.865387 536.070557,369.348145 
	C541.347107,363.607971 544.995056,357.203491 545.728943,349.381592 
	C546.054871,345.907349 546.147888,342.411285 546.677979,338.940277 
	C547.672913,338.970276 548.336426,338.985138 549.000000,339.000000 
	C549.000000,342.030609 549.000000,345.061188 549.000000,348.545898 
z"/>
<path fill="#092864" opacity="1.000000" stroke="none" 
	d="
M546.344788,149.927612 
	C547.008423,149.956299 547.672119,149.985001 548.667847,150.006851 
	C549.000000,156.687637 549.000000,163.375290 548.666077,170.522186 
	C547.666748,171.012558 547.001343,171.043640 546.223755,170.611908 
	C546.189331,163.408600 546.267090,156.668106 546.344788,149.927612 
z"/>
<path fill="#041241" opacity="1.000000" stroke="none" 
	d="
M546.342407,225.074127 
	C547.006165,225.042923 547.669983,225.011719 548.666870,224.990265 
	C549.000000,225.750000 549.000000,226.500000 549.000000,227.625000 
	C548.335449,227.985916 547.670898,227.971817 546.623108,227.587158 
	C546.274048,226.502441 546.308228,225.788284 546.342407,225.074127 
z"/>
<path fill="#041241" opacity="1.000000" stroke="none" 
	d="
M546.335938,171.074738 
	C547.001343,171.043640 547.666748,171.012558 548.666077,170.990723 
	C549.000000,171.750000 549.000000,172.500000 549.000000,173.625000 
	C548.334167,173.985794 547.668274,173.971573 546.617676,173.586609 
	C546.267212,172.502151 546.301575,171.788437 546.335938,171.074738 
z"/>
<path fill="#041241" opacity="1.000000" stroke="none" 
	d="
M549.000000,338.666656 
	C548.336426,338.985138 547.672913,338.970276 546.632935,338.633057 
	C546.286133,337.898682 546.315674,337.486694 546.345154,337.074677 
	C547.008484,337.043762 547.671814,337.012817 548.667603,336.990967 
	C549.000000,337.444427 549.000000,337.888885 549.000000,338.666656 
z"/>
<path fill="#3679CB" opacity="1.000000" stroke="none" 
	d="
M14.956608,115.979393 
	C15.868937,115.151276 16.781267,114.323158 18.137978,113.089386 
	C21.032684,110.111542 23.483007,107.539368 25.933332,104.967186 
	C26.527403,104.471420 27.121471,103.975647 28.159672,103.103050 
	C29.600920,101.846092 30.807680,101.115639 31.560539,100.061119 
	C35.881744,94.008430 41.734222,92.849266 48.929272,92.875237 
	C117.564392,93.122948 186.200760,93.027374 254.836761,93.030060 
	C262.147400,93.030350 262.163727,93.029358 262.164124,100.581642 
	C262.166779,153.724304 262.162170,206.866974 262.159851,260.009644 
	C262.159851,260.009644 261.912659,260.205231 261.537354,260.495422 
	C258.148682,263.541962 255.135284,266.298340 252.121887,269.054718 
	C251.845306,269.248291 251.568710,269.441895 250.843674,269.957581 
	C231.590607,286.663116 212.785995,303.046539 193.981369,319.429993 
	C194.290421,320.003540 194.599487,320.577118 194.908539,321.150665 
	C197.367310,321.150665 199.826080,321.151459 202.284851,321.150543 
	C220.273880,321.143768 238.264404,321.261719 256.250885,321.043488 
	C260.858093,320.987579 262.307556,322.540710 262.248627,327.080261 
	C262.036652,343.400879 262.157440,359.725830 262.152527,376.049164 
	C262.152527,376.049164 262.049103,376.048706 261.577850,376.101013 
	C190.069229,376.184296 119.031662,376.144623 47.994713,376.333466 
	C38.849648,376.357758 30.095211,375.617096 21.984865,371.078430 
	C21.984865,371.078430 21.804779,370.863434 21.485167,370.534393 
	C14.230682,364.413849 9.063448,357.492035 7.772868,348.303253 
	C7.200460,344.227783 7.106404,340.085144 6.795212,335.972992 
	C6.838923,335.234680 6.882634,334.496368 6.954501,332.930176 
	C7.017222,305.191925 7.076151,278.281555 7.071100,251.371201 
	C7.069636,243.571152 6.884792,235.771133 6.784013,227.971100 
	C6.823298,227.538437 6.862582,227.105789 6.940086,225.888519 
	C7.014308,196.564941 7.221893,168.024521 6.983835,139.487823 
	C6.910523,130.699722 6.621947,122.257179 14.778863,116.437386 
	C14.890306,116.357880 14.899624,116.135231 14.956608,115.979393 
M52.483582,163.587921 
	C53.827236,168.670364 57.404488,170.120529 62.302399,170.114120 
	C110.618935,170.050842 158.935577,170.087860 207.252197,170.067001 
	C214.413040,170.063919 217.323746,167.238739 217.413986,160.146713 
	C217.515717,152.150742 217.478607,144.152374 217.438034,136.155380 
	C217.393799,127.436951 214.853088,124.920822 206.006393,124.905357 
	C187.013031,124.872154 168.019547,124.890923 149.026123,124.891495 
	C120.369370,124.892372 91.712585,124.869957 63.055901,124.914902 
	C54.981312,124.927574 52.233105,127.710892 52.208763,135.768097 
	C52.181587,144.763351 52.275177,153.758942 52.483582,163.587921 
M107.549706,262.934052 
	C122.699341,278.029816 143.759750,279.160309 159.267471,265.710175 
	C173.684448,253.206055 175.967941,231.376648 164.470718,215.968353 
	C152.101654,199.391602 128.325455,196.262085 111.970825,209.058105 
	C95.320183,222.085739 93.200218,245.242081 107.549706,262.934052 
z"/>
<path fill="#377ACA" opacity="1.000000" stroke="none" 
	d="
M546.231323,336.612366 
	C546.315674,337.486694 546.286133,337.898682 546.301636,338.617920 
	C546.147888,342.411285 546.054871,345.907349 545.728943,349.381592 
	C544.995056,357.203491 541.347107,363.607971 535.714722,369.377075 
	C535.572266,369.686707 535.268127,369.851776 534.812012,370.063995 
	C528.639893,373.918243 522.580933,376.169495 515.622498,376.162445 
	C442.933746,376.088867 370.244904,376.124634 297.556091,376.070953 
	C295.284973,376.069275 293.014343,375.429688 290.743469,375.087463 
	C290.761230,353.058655 290.778961,331.029846 290.820801,308.168427 
	C289.216431,306.430908 287.607727,304.787140 285.956146,304.742859 
	C276.332581,304.484894 266.698730,304.637390 257.069031,304.562256 
	C255.229706,304.547943 253.393494,304.136017 251.555862,303.907532 
	C251.042160,303.125427 250.528473,302.343292 250.014786,301.561188 
	C252.351669,299.999573 254.966263,298.731140 256.977509,296.825775 
	C265.879425,288.392487 274.607971,279.776215 283.399261,271.226166 
	C284.809937,269.982239 286.220642,268.738312 288.083496,267.136597 
	C288.981812,266.164185 289.427948,265.549530 289.874084,264.934875 
	C290.211945,262.511963 290.842010,260.089325 290.844635,257.666046 
	C290.901154,205.172577 290.870300,152.678986 290.944397,100.185547 
	C290.947723,97.828873 291.780731,95.473381 293.042969,93.035728 
	C295.520599,93.013489 297.182587,93.124519 298.844574,93.124786 
	C356.936371,93.134308 415.028168,93.145515 473.119965,93.115723 
	C479.098969,93.112656 485.077820,92.855927 491.056763,92.716904 
	C491.220703,92.787437 491.384674,92.857979 491.804474,93.324921 
	C492.088043,94.108673 492.115814,94.496017 492.181946,95.368874 
	C492.240356,109.458580 492.218475,123.063011 492.296234,136.666885 
	C492.342102,144.685196 494.373260,146.681915 502.323730,146.727432 
	C516.257874,146.807190 530.192322,146.843262 544.428711,146.912109 
	C545.133484,146.943192 545.536194,146.959778 545.938904,146.976379 
	C546.033264,147.715073 546.127625,148.453766 546.283386,149.560028 
	C546.267090,156.668106 546.189331,163.408600 546.223755,170.611908 
	C546.301575,171.788437 546.267212,172.502151 546.285645,173.570038 
	C546.264160,190.665787 546.189941,207.407333 546.229004,224.611511 
	C546.308228,225.788284 546.274048,226.502441 546.291748,227.571167 
	C546.229187,228.746506 546.014099,229.567322 546.014587,230.388016 
	C546.036865,265.642029 546.078369,300.896027 546.231323,336.612366 
M490.525696,194.574554 
	C494.024689,194.565979 497.548859,194.790588 501.008362,194.416687 
	C502.150360,194.293259 503.988617,192.664917 504.035370,191.656418 
	C504.319000,185.536438 504.176727,179.396729 504.176727,172.575119 
	C498.314667,172.575119 493.006989,172.348816 487.729156,172.648224 
	C483.660126,172.879074 482.072266,171.420883 480.932709,167.406540 
	C479.039215,160.736282 476.995178,153.762634 473.271820,148.053268 
	C469.389862,142.100800 467.329102,136.345428 468.179657,129.456833 
	C468.640228,125.726585 467.072662,124.514923 463.399597,124.557648 
	C455.742950,124.646698 447.892181,125.374184 440.461090,124.000656 
	C423.905304,120.940582 407.248810,120.553726 390.646484,121.440079 
	C374.226990,122.316666 357.418030,117.410011 341.349426,124.498024 
	C338.952240,125.555435 334.928955,124.677063 333.737213,126.259827 
	C332.344604,128.109375 333.205902,131.675476 333.140228,134.498047 
	C333.093750,136.496857 333.345764,138.525497 333.089569,140.491974 
	C332.459991,145.324860 334.419006,147.305649 339.222137,146.613983 
	C343.118805,146.052841 344.631805,147.716553 344.414551,151.685638 
	C344.150818,156.504166 344.040497,161.374649 344.442627,166.174149 
	C344.868561,171.257538 343.051971,173.325424 337.985626,172.592194 
	C334.359436,172.067398 332.794983,173.572556 333.083527,177.369400 
	C333.347900,180.848801 333.418060,184.394165 333.060760,187.857529 
	C332.534271,192.960373 334.160767,195.436752 339.601746,194.598785 
	C343.393127,194.014877 344.560211,195.966110 344.399841,199.534470 
	C344.198029,204.025101 344.361572,208.531769 344.351868,213.031494 
	C344.336121,220.344940 344.749481,220.371185 337.428070,220.421097 
	C336.003662,220.430801 333.428986,222.098877 333.363922,223.127213 
	C332.977386,229.236511 333.173004,235.382645 333.173004,241.918381 
	C335.492279,242.054901 337.310028,242.406036 339.069763,242.216949 
	C343.320862,241.760208 344.638489,243.632904 344.413910,247.684814 
	C344.146820,252.503082 344.053864,257.370880 344.433350,262.173950 
	C344.818115,267.043915 343.026428,268.953186 338.238892,268.250214 
	C334.398773,267.686371 332.714691,269.209167 333.077911,273.262695 
	C333.374146,276.569031 333.127319,279.923523 333.130066,283.256683 
	C333.135559,289.966431 333.138306,290.150940 339.805389,290.141205 
	C343.321716,290.136078 344.531586,291.415588 344.396454,294.835327 
	C344.205750,299.660767 344.050110,304.523956 344.438141,309.325867 
	C344.844574,314.355652 343.130829,316.521606 338.005920,315.778656 
	C334.443176,315.262177 332.761902,316.672821 333.081635,320.519440 
	C333.356750,323.829651 333.134460,327.180969 333.137146,330.514130 
	C333.143005,337.733002 333.144348,337.742279 340.605835,337.742706 
	C392.769623,337.745667 444.933441,337.745087 497.097229,337.741638 
	C498.596558,337.741516 500.187531,337.995453 501.564667,337.573059 
	C502.569580,337.264832 504.000702,336.061493 504.028656,335.217041 
	C504.236664,328.930725 504.141541,322.634369 504.141541,315.413361 
	C488.602142,315.413361 473.659058,315.413361 458.715973,315.413361 
	C458.585144,314.978516 458.454315,314.543671 458.323486,314.108826 
	C466.561340,308.523590 472.686188,301.252441 476.977295,292.366913 
	C477.541962,291.197723 479.914459,290.375061 481.486450,290.312286 
	C487.476685,290.073059 493.490326,290.018005 499.478607,290.277496 
	C503.286072,290.442505 504.497131,288.993713 504.262054,285.348389 
	C504.015839,281.531158 503.949982,277.663605 504.276123,273.858429 
	C504.644623,269.558868 503.309265,267.810730 498.759064,268.149414 
	C493.689117,268.526825 488.569397,268.235931 483.344330,268.235931 
	C483.344330,260.727905 483.506622,254.085449 483.282135,247.456100 
	C483.152008,243.613632 484.366821,241.985458 488.402008,242.202896 
	C493.487152,242.476913 498.598297,242.268997 504.172241,242.268997 
	C504.172241,235.335754 504.337982,229.189102 504.004395,223.069656 
	C503.950592,222.082642 501.729340,220.527710 500.414154,220.421448 
	C496.108337,220.073563 491.755127,220.168411 487.426300,220.297974 
	C484.388092,220.388901 483.271301,219.074371 483.331055,216.133545 
	C483.436066,210.969467 483.638794,205.780136 483.259766,200.641266 
	C482.896210,195.712677 484.836151,193.894272 490.525696,194.574554 
z"/>
<path fill="#3675C5" opacity="1.000000" stroke="none" 
	d="
M142.954742,59.116791 
	C156.888779,59.148052 155.884735,57.974968 155.888092,71.453377 
	C155.890594,81.463974 155.879318,81.465912 145.608505,81.467194 
	C136.788742,81.468292 127.967697,81.375008 119.149803,81.502426 
	C115.102829,81.560913 113.343468,79.825119 113.458130,75.832832 
	C113.567955,72.008324 113.610039,68.175636 113.490593,64.352516 
	C113.367912,60.425945 115.312630,59.059074 118.999153,59.101097 
	C126.819397,59.190247 134.641464,59.120171 142.954742,59.116791 
z"/>
<path fill="#051D54" opacity="1.000000" stroke="none" 
	d="
M262.459167,259.785278 
	C262.162170,206.866974 262.166779,153.724304 262.164124,100.581642 
	C262.163727,93.029358 262.147400,93.030350 254.836761,93.030060 
	C186.200760,93.027374 117.564392,93.122948 48.929272,92.875237 
	C41.734222,92.849266 35.881744,94.008430 31.560539,100.061119 
	C30.807680,101.115639 29.600920,101.846092 28.290972,102.839943 
	C32.354515,95.946854 37.299232,90.812485 46.851753,90.852722 
	C115.974182,91.143906 185.098389,91.011047 254.222031,91.016785 
	C263.550842,91.017563 263.996948,91.467896 263.997925,100.969421 
	C264.002960,151.438004 264.016968,201.906631 263.947113,252.375107 
	C263.943787,254.770920 263.172272,257.165680 262.459167,259.785278 
z"/>
<path fill="#092864" opacity="1.000000" stroke="none" 
	d="
M290.677643,375.376129 
	C293.014343,375.429688 295.284973,376.069275 297.556091,376.070953 
	C370.244904,376.124634 442.933746,376.088867 515.622498,376.162445 
	C522.580933,376.169495 528.639893,373.918243 534.696777,370.193054 
	C531.016663,375.950226 524.493042,376.444702 518.410034,377.788086 
	C516.814697,378.140381 515.090271,377.940094 513.425171,377.940247 
	C441.783142,377.946594 370.141083,377.971130 298.499237,377.851715 
	C295.868896,377.847321 293.240906,376.425873 290.677643,375.376129 
z"/>
<path fill="#051D54" opacity="1.000000" stroke="none" 
	d="
M22.096889,371.402405 
	C30.095211,375.617096 38.849648,376.357758 47.994713,376.333466 
	C119.031662,376.144623 190.069229,376.184296 261.578094,376.152740 
	C260.090118,376.768280 258.131317,377.920563 256.171082,377.923035 
	C184.271973,378.014252 112.372520,378.076294 40.473919,377.866028 
	C34.012569,377.847137 27.094025,377.320618 22.096889,371.402405 
z"/>
<path fill="#3D73B8" opacity="1.000000" stroke="none" 
	d="
M153.736069,31.623520 
	C150.954788,43.869068 140.575104,50.939812 130.273682,47.997276 
	C119.249878,44.848396 113.314308,34.022293 116.795891,23.414633 
	C119.746971,14.423308 128.576965,9.161860 138.000397,10.779671 
	C147.937180,12.485614 153.871704,20.165184 153.736069,31.623520 
M139.886887,19.812304 
	C141.680405,25.102377 143.473938,30.392450 145.365646,35.972126 
	C148.777115,33.871040 148.560379,30.174715 148.127167,26.756397 
	C147.603470,22.624472 145.794357,19.164436 141.327652,18.081005 
	C144.442734,15.426721 143.004272,14.058467 139.960800,13.010140 
	C132.832764,10.554877 125.017128,13.149892 120.693336,19.471382 
	C116.502823,25.598013 116.926659,34.942245 121.641144,40.367748 
	C127.175423,46.736675 134.922699,48.694847 141.851791,45.325638 
	C142.965805,44.783955 143.771042,43.607246 145.577805,41.924023 
	C142.991989,41.774044 141.807816,41.705364 140.199478,41.612083 
	C142.806122,35.152420 142.609344,29.325634 139.051239,23.612181 
	C138.461838,22.665749 139.690903,20.586843 139.886887,19.812304 
z"/>
<path fill="#051D54" opacity="1.000000" stroke="none" 
	d="
M262.452271,375.820679 
	C262.157440,359.725830 262.036652,343.400879 262.248627,327.080261 
	C262.307556,322.540710 260.858093,320.987579 256.250885,321.043488 
	C238.264404,321.261719 220.273880,321.143768 202.284851,321.150543 
	C199.826080,321.151459 197.367310,321.150665 194.908539,321.150665 
	C194.599487,320.577118 194.290421,320.003540 193.981369,319.429993 
	C212.785995,303.046539 231.590607,286.663116 250.714142,270.178223 
	C246.048889,275.114075 241.309174,280.425598 236.029922,285.131958 
	C224.864807,295.085388 213.406509,304.709625 202.107452,314.513885 
	C201.167297,315.329651 200.522034,316.485291 199.079163,318.325592 
	C201.856125,318.618103 203.725571,318.980621 205.596069,318.986206 
	C222.245148,319.035736 238.894547,318.990295 255.543610,319.042175 
	C262.808838,319.064789 263.978394,320.269592 263.991211,327.451447 
	C264.016144,341.436768 264.049652,355.422546 263.943420,369.407074 
	C263.927704,371.471680 263.167664,373.530609 262.452271,375.820679 
z"/>
<path fill="#092864" opacity="1.000000" stroke="none" 
	d="
M490.811768,92.440094 
	C485.077820,92.855927 479.098969,93.112656 473.119965,93.115723 
	C415.028168,93.145515 356.936371,93.134308 298.844574,93.124786 
	C297.182587,93.124519 295.520599,93.013489 293.400818,92.826790 
	C294.950134,92.162216 296.956970,91.157852 298.964325,91.156815 
	C337.598663,91.136887 376.233032,91.275696 414.867432,91.292564 
	C437.847198,91.302597 460.827057,91.128464 483.806854,91.132492 
	C486.060211,91.132889 488.313477,91.803673 490.811768,92.440094 
z"/>
<path fill="#051D54" opacity="1.000000" stroke="none" 
	d="
M14.628804,116.069229 
	C14.899624,116.135231 14.890306,116.357880 14.778863,116.437386 
	C6.621947,122.257179 6.910523,130.699722 6.983835,139.487823 
	C7.221893,168.024521 7.014308,196.564941 6.882591,225.566498 
	C6.196921,223.888870 5.101623,221.750641 5.093308,219.608185 
	C4.980491,190.537720 5.164832,161.465469 4.919870,132.396652 
	C4.855826,124.796753 8.167410,119.833687 14.628804,116.069229 
z"/>
<path fill="#051D54" opacity="1.000000" stroke="none" 
	d="
M6.498106,228.211090 
	C6.884792,235.771133 7.069636,243.571152 7.071100,251.371201 
	C7.076151,278.281555 7.017222,305.191925 6.887831,332.564850 
	C6.202469,331.215637 5.103106,329.405518 5.097077,327.591797 
	C4.992450,296.114502 5.005051,264.636780 5.073088,233.159286 
	C5.076482,231.589066 5.815635,230.020432 6.498106,228.211090 
z"/>
<path fill="#092864" opacity="1.000000" stroke="none" 
	d="
M283.041321,271.266571 
	C274.607971,279.776215 265.879425,288.392487 256.977509,296.825775 
	C254.966263,298.731140 252.351669,299.999573 250.014786,301.561188 
	C250.528473,302.343292 251.042160,303.125427 251.555862,303.907532 
	C253.393494,304.136017 255.229706,304.547943 257.069031,304.562256 
	C266.698730,304.637390 276.332581,304.484894 285.956146,304.742859 
	C287.607727,304.787140 289.216431,306.430908 290.757202,307.709015 
	C288.169983,307.404541 285.683197,306.203125 283.168732,306.142059 
	C273.551117,305.908417 263.924316,306.078888 254.301620,306.005585 
	C252.424606,305.991302 250.550735,305.562256 248.057999,305.246246 
	C248.943375,303.551849 249.240494,302.374481 249.982147,301.655792 
	C260.101532,291.849243 270.273712,282.097015 280.471649,272.372101 
	C281.035095,271.834778 281.938324,271.653809 283.041321,271.266571 
z"/>
<path fill="#418AA3" opacity="1.000000" stroke="none" 
	d="
M492.143585,94.883377 
	C492.115814,94.496017 492.088043,94.108673 492.050720,93.430115 
	C493.150208,93.758354 494.469666,94.166168 495.337158,95.028625 
	C511.678375,111.274979 527.970642,127.570580 544.248901,143.880127 
	C544.931030,144.563538 545.377991,145.481628 545.936707,146.633377 
	C545.536194,146.959778 545.133484,146.943192 544.395874,146.563248 
	C543.441956,145.244598 542.968567,144.144119 542.182373,143.355453 
	C526.774780,127.898972 511.345215,112.464211 495.860382,97.085175 
	C494.869720,96.101265 493.393768,95.605972 492.143585,94.883377 
z"/>
<path fill="#051D54" opacity="1.000000" stroke="none" 
	d="
M6.511640,336.205444 
	C7.106404,340.085144 7.200460,344.227783 7.772868,348.303253 
	C9.063448,357.492035 14.230682,364.413849 21.348385,370.503479 
	C18.576683,368.581940 14.854799,366.908173 12.813384,364.038849 
	C6.992209,355.856812 3.415084,346.825562 6.511640,336.205444 
z"/>
<path fill="#051D54" opacity="1.000000" stroke="none" 
	d="
M252.470367,269.010742 
	C255.135284,266.298340 258.148682,263.541962 261.486145,260.644470 
	C258.813080,263.324493 255.815964,266.145630 252.470367,269.010742 
z"/>
<path fill="#051D54" opacity="1.000000" stroke="none" 
	d="
M25.580925,105.006561 
	C23.483007,107.539368 21.032684,110.111542 18.275162,112.810074 
	C20.388147,110.306267 22.808334,107.676109 25.580925,105.006561 
z"/>
<path fill="#092864" opacity="1.000000" stroke="none" 
	d="
M289.605408,265.047424 
	C289.427948,265.549530 288.981812,266.164185 288.255310,266.870483 
	C288.428833,266.361420 288.882782,265.760681 289.605408,265.047424 
z"/>
<path fill="#F3FAFE" opacity="1.000000" stroke="none" 
	d="
M52.399895,163.171158 
	C52.275177,153.758942 52.181587,144.763351 52.208763,135.768097 
	C52.233105,127.710892 54.981312,124.927574 63.055901,124.914902 
	C91.712585,124.869957 120.369370,124.892372 149.026123,124.891495 
	C168.019547,124.890923 187.013031,124.872154 206.006393,124.905357 
	C214.853088,124.920822 217.393799,127.436951 217.438034,136.155380 
	C217.478607,144.152374 217.515717,152.150742 217.413986,160.146713 
	C217.323746,167.238739 214.413040,170.063919 207.252197,170.067001 
	C158.935577,170.087860 110.618935,170.050842 62.302399,170.114120 
	C57.404488,170.120529 53.827236,168.670364 52.399895,163.171158 
M68.911705,150.375244 
	C68.932198,158.897232 68.932198,158.897339 77.404747,158.912949 
	C78.399200,158.914780 79.393654,158.916168 80.388107,158.915680 
	C89.285248,158.911362 89.389748,158.909760 89.267982,150.220917 
	C89.036110,133.675690 92.031250,136.048004 74.264107,135.771790 
	C70.079956,135.706757 68.608383,137.495422 68.887215,141.464706 
	C69.072571,144.103317 68.916283,146.765915 68.911705,150.375244 
M105.938988,143.645279 
	C105.939217,145.136139 105.940613,146.626984 105.939491,148.117844 
	C105.930832,159.624725 105.095268,158.935760 116.661079,158.915344 
	C126.336700,158.898270 126.402435,158.908325 126.322250,148.983582 
	C126.202484,134.159912 128.281754,135.900345 113.044327,135.824646 
	C106.178551,135.790527 106.066605,135.967850 105.938988,143.645279 
M149.689636,135.808502 
	C143.171280,136.012314 143.015442,136.167282 142.975800,142.618286 
	C142.963577,144.606415 142.971771,146.594666 142.972092,148.582870 
	C142.973770,158.917694 142.973938,158.917679 153.186630,158.916199 
	C163.399872,158.914719 163.443604,158.914536 163.397720,148.518112 
	C163.334656,134.222870 164.977966,135.918716 149.689636,135.808502 
M197.134293,135.899704 
	C192.992188,135.875107 188.849716,135.875916 184.708099,135.817352 
	C181.733948,135.775299 179.973328,136.898834 180.012665,140.153778 
	C180.070724,144.958710 180.023987,149.764832 180.037735,154.570389 
	C180.045792,157.385666 181.408737,158.885101 184.294312,158.879532 
	C188.271225,158.871872 192.315247,159.293381 196.192749,158.671707 
	C197.787460,158.416016 200.046066,156.040771 200.230179,154.427353 
	C200.771576,149.683548 200.595505,144.828445 200.316986,140.039230 
	C200.238113,138.682968 198.844833,137.403183 197.134293,135.899704 
z"/>
<path fill="#FAFDFF" opacity="1.000000" stroke="none" 
	d="
M107.318748,262.664703 
	C93.200218,245.242081 95.320183,222.085739 111.970825,209.058105 
	C128.325455,196.262085 152.101654,199.391602 164.470718,215.968353 
	C175.967941,231.376648 173.684448,253.206055 159.267471,265.710175 
	C143.759750,279.160309 122.699341,278.029816 107.318748,262.664703 
z"/>
<path fill="#F1F9FD" opacity="1.000000" stroke="none" 
	d="
M490.034241,194.575104 
	C484.836151,193.894272 482.896210,195.712677 483.259766,200.641266 
	C483.638794,205.780136 483.436066,210.969467 483.331055,216.133545 
	C483.271301,219.074371 484.388092,220.388901 487.426300,220.297974 
	C491.755127,220.168411 496.108337,220.073563 500.414154,220.421448 
	C501.729340,220.527710 503.950592,222.082642 504.004395,223.069656 
	C504.337982,229.189102 504.172241,235.335754 504.172241,242.268997 
	C498.598297,242.268997 493.487152,242.476913 488.402008,242.202896 
	C484.366821,241.985458 483.152008,243.613632 483.282135,247.456100 
	C483.506622,254.085449 483.344330,260.727905 483.344330,268.235931 
	C488.569397,268.235931 493.689117,268.526825 498.759064,268.149414 
	C503.309265,267.810730 504.644623,269.558868 504.276123,273.858429 
	C503.949982,277.663605 504.015839,281.531158 504.262054,285.348389 
	C504.497131,288.993713 503.286072,290.442505 499.478607,290.277496 
	C493.490326,290.018005 487.476685,290.073059 481.486450,290.312286 
	C479.914459,290.375061 477.541962,291.197723 476.977295,292.366913 
	C472.686188,301.252441 466.561340,308.523590 458.323486,314.108826 
	C458.454315,314.543671 458.585144,314.978516 458.715973,315.413361 
	C473.659058,315.413361 488.602142,315.413361 504.141541,315.413361 
	C504.141541,322.634369 504.236664,328.930725 504.028656,335.217041 
	C504.000702,336.061493 502.569580,337.264832 501.564667,337.573059 
	C500.187531,337.995453 498.596558,337.741516 497.097229,337.741638 
	C444.933441,337.745087 392.769623,337.745667 340.605835,337.742706 
	C333.144348,337.742279 333.143005,337.733002 333.137146,330.514130 
	C333.134460,327.180969 333.356750,323.829651 333.081635,320.519440 
	C332.761902,316.672821 334.443176,315.262177 338.005920,315.778656 
	C343.130829,316.521606 344.844574,314.355652 344.438141,309.325867 
	C344.050110,304.523956 344.205750,299.660767 344.396454,294.835327 
	C344.531586,291.415588 343.321716,290.136078 339.805389,290.141205 
	C333.138306,290.150940 333.135559,289.966431 333.130066,283.256683 
	C333.127319,279.923523 333.374146,276.569031 333.077911,273.262695 
	C332.714691,269.209167 334.398773,267.686371 338.238892,268.250214 
	C343.026428,268.953186 344.818115,267.043915 344.433350,262.173950 
	C344.053864,257.370880 344.146820,252.503082 344.413910,247.684814 
	C344.638489,243.632904 343.320862,241.760208 339.069763,242.216949 
	C337.310028,242.406036 335.492279,242.054901 333.173004,241.918381 
	C333.173004,235.382645 332.977386,229.236511 333.363922,223.127213 
	C333.428986,222.098877 336.003662,220.430801 337.428070,220.421097 
	C344.749481,220.371185 344.336121,220.344940 344.351868,213.031494 
	C344.361572,208.531769 344.198029,204.025101 344.399841,199.534470 
	C344.560211,195.966110 343.393127,194.014877 339.601746,194.598785 
	C334.160767,195.436752 332.534271,192.960373 333.060760,187.857529 
	C333.418060,184.394165 333.347900,180.848801 333.083527,177.369400 
	C332.794983,173.572556 334.359436,172.067398 337.985626,172.592194 
	C343.051971,173.325424 344.868561,171.257538 344.442627,166.174149 
	C344.040497,161.374649 344.150818,156.504166 344.414551,151.685638 
	C344.631805,147.716553 343.118805,146.052841 339.222137,146.613983 
	C334.419006,147.305649 332.459991,145.324860 333.089569,140.491974 
	C333.345764,138.525497 333.093750,136.496857 333.140228,134.498047 
	C333.205902,131.675476 332.344604,128.109375 333.737213,126.259827 
	C334.928955,124.677063 338.952240,125.555435 341.349426,124.498024 
	C357.418030,117.410011 374.226990,122.316666 390.646484,121.440079 
	C407.248810,120.553726 423.905304,120.940582 440.461090,124.000656 
	C447.892181,125.374184 455.742950,124.646698 463.399597,124.557648 
	C467.072662,124.514923 468.640228,125.726585 468.179657,129.456833 
	C467.329102,136.345428 469.389862,142.100800 473.271820,148.053268 
	C476.995178,153.762634 479.039215,160.736282 480.932709,167.406540 
	C482.072266,171.420883 483.660126,172.879074 487.729156,172.648224 
	C493.006989,172.348816 498.314667,172.575119 504.176727,172.575119 
	C504.176727,179.396729 504.319000,185.536438 504.035370,191.656418 
	C503.988617,192.664917 502.150360,194.293259 501.008362,194.416687 
	C497.548859,194.790588 494.024689,194.565979 490.034241,194.575104 
M462.440979,299.901215 
	C471.202545,289.652771 474.787720,277.363556 474.963806,264.308258 
	C475.334290,236.837952 475.540009,209.342422 474.691528,181.891907 
	C474.416656,172.998947 471.953949,163.607880 468.203400,155.503815 
	C459.952301,137.674957 443.501495,131.099335 425.290771,130.104340 
	C403.201233,128.897415 381.016815,129.410324 358.873016,129.223862 
	C352.386078,129.169235 352.366364,129.239090 352.364807,135.965576 
	C352.356293,172.271988 352.355560,208.578415 352.357178,244.884827 
	C352.358185,267.201599 352.399078,289.518494 352.340057,311.835083 
	C352.331512,315.068451 352.708954,317.214783 356.837067,317.176392 
	C377.819305,316.981476 398.818390,317.456390 419.782104,316.781403 
	C435.518372,316.274750 450.557159,312.714294 462.440979,299.901215 
z"/>
<path fill="#6DE6EA" opacity="1.000000" stroke="none" 
	d="
M492.181946,95.368881 
	C493.393768,95.605972 494.869720,96.101265 495.860382,97.085175 
	C511.345215,112.464211 526.774780,127.898972 542.182373,143.355453 
	C542.968567,144.144119 543.441956,145.244598 544.093811,146.548767 
	C530.192322,146.843262 516.257874,146.807190 502.323730,146.727432 
	C494.373260,146.681915 492.342102,144.685196 492.296234,136.666885 
	C492.218475,123.063011 492.240356,109.458580 492.181946,95.368881 
z"/>
<path fill="#3679CB" opacity="1.000000" stroke="none" 
	d="
M140.079620,19.031281 
	C139.690903,20.586843 138.461838,22.665749 139.051239,23.612181 
	C142.609344,29.325634 142.806122,35.152420 140.199478,41.612083 
	C141.807816,41.705364 142.991989,41.774044 145.577805,41.924023 
	C143.771042,43.607246 142.965805,44.783955 141.851791,45.325638 
	C134.922699,48.694847 127.175423,46.736675 121.641144,40.367748 
	C116.926659,34.942245 116.502823,25.598013 120.693336,19.471382 
	C125.017128,13.149892 132.832764,10.554877 139.960800,13.010140 
	C143.004272,14.058467 144.442734,15.426721 140.956177,18.479790 
	C140.416336,18.929476 140.247971,18.980379 140.079620,19.031281 
z"/>
<path fill="#D4F1FD" opacity="1.000000" stroke="none" 
	d="
M139.983246,19.421791 
	C140.247971,18.980379 140.416336,18.929476 140.786697,18.709080 
	C145.794357,19.164436 147.603470,22.624472 148.127167,26.756397 
	C148.560379,30.174715 148.777115,33.871040 145.365646,35.972126 
	C143.473938,30.392450 141.680405,25.102377 139.983246,19.421791 
z"/>
<path fill="#407EC6" opacity="1.000000" stroke="none" 
	d="
M68.912308,149.896515 
	C68.916283,146.765915 69.072571,144.103317 68.887215,141.464706 
	C68.608383,137.495422 70.079956,135.706757 74.264107,135.771790 
	C92.031250,136.048004 89.036110,133.675690 89.267982,150.220917 
	C89.389748,158.909760 89.285248,158.911362 80.388107,158.915680 
	C79.393654,158.916168 78.399200,158.914780 77.404747,158.912949 
	C68.932198,158.897339 68.932198,158.897232 68.912308,149.896515 
z"/>
<path fill="#407EC6" opacity="1.000000" stroke="none" 
	d="
M105.939690,143.172089 
	C106.066605,135.967850 106.178551,135.790527 113.044327,135.824646 
	C128.281754,135.900345 126.202484,134.159912 126.322250,148.983582 
	C126.402435,158.908325 126.336700,158.898270 116.661079,158.915344 
	C105.095268,158.935760 105.930832,159.624725 105.939491,148.117844 
	C105.940613,146.626984 105.939217,145.136139 105.939690,143.172089 
z"/>
<path fill="#407EC6" opacity="1.000000" stroke="none" 
	d="
M150.161331,135.807419 
	C164.977966,135.918716 163.334656,134.222870 163.397720,148.518112 
	C163.443604,158.914536 163.399872,158.914719 153.186630,158.916199 
	C142.973938,158.917679 142.973770,158.917694 142.972092,148.582870 
	C142.971771,146.594666 142.963577,144.606415 142.975800,142.618286 
	C143.015442,136.167282 143.171280,136.012314 150.161331,135.807419 
z"/>
<path fill="#407EC7" opacity="1.000000" stroke="none" 
	d="
M197.594330,135.994019 
	C198.844833,137.403183 200.238113,138.682968 200.316986,140.039230 
	C200.595505,144.828445 200.771576,149.683548 200.230179,154.427353 
	C200.046066,156.040771 197.787460,158.416016 196.192749,158.671707 
	C192.315247,159.293381 188.271225,158.871872 184.294312,158.879532 
	C181.408737,158.885101 180.045792,157.385666 180.037735,154.570389 
	C180.023987,149.764832 180.070724,144.958710 180.012665,140.153778 
	C179.973328,136.898834 181.733948,135.775299 184.708099,135.817352 
	C188.849716,135.875916 192.992188,135.875107 197.594330,135.994019 
z"/>
<path fill="#3A7CCB" opacity="1.000000" stroke="none" 
	d="
M462.201599,300.166718 
	C450.557159,312.714294 435.518372,316.274750 419.782104,316.781403 
	C398.818390,317.456390 377.819305,316.981476 356.837067,317.176392 
	C352.708954,317.214783 352.331512,315.068451 352.340057,311.835083 
	C352.399078,289.518494 352.358185,267.201599 352.357178,244.884827 
	C352.355560,208.578415 352.356293,172.271988 352.364807,135.965576 
	C352.366364,129.239090 352.386078,129.169235 358.873016,129.223862 
	C381.016815,129.410324 403.201233,128.897415 425.290771,130.104340 
	C443.501495,131.099335 459.952301,137.674957 468.203400,155.503815 
	C471.953949,163.607880 474.416656,172.998947 474.691528,181.891907 
	C475.540009,209.342422 475.334290,236.837952 474.963806,264.308258 
	C474.787720,277.363556 471.202545,289.652771 462.201599,300.166718 
M413.339233,284.875336 
	C427.140717,284.699402 435.591248,279.841278 438.633789,269.627472 
	C439.846863,265.555176 440.245819,261.115356 440.277924,256.837311 
	C440.437775,235.530060 440.374542,214.220917 440.331421,192.912567 
	C440.324036,189.256287 440.288727,185.568100 439.827576,181.950577 
	C438.339996,170.280655 431.345978,163.079453 419.593018,162.152527 
	C410.159637,161.408554 400.639862,161.779999 391.159485,161.599823 
	C388.391357,161.547211 387.257233,162.804825 387.321777,165.522293 
	C387.404785,169.016006 387.322693,172.513489 387.322388,176.009354 
	C387.319427,210.438766 387.390045,244.868500 387.228424,279.297150 
	C387.207794,283.691589 388.502167,285.181702 392.903961,284.960419 
	C399.380035,284.634796 405.884583,284.876648 413.339233,284.875336 
z"/>
<path fill="#FAFDFE" opacity="1.000000" stroke="none" 
	d="
M412.858124,284.876038 
	C405.884583,284.876648 399.380035,284.634796 392.903961,284.960419 
	C388.502167,285.181702 387.207794,283.691589 387.228424,279.297150 
	C387.390045,244.868500 387.319427,210.438766 387.322388,176.009354 
	C387.322693,172.513489 387.404785,169.016006 387.321777,165.522293 
	C387.257233,162.804825 388.391357,161.547211 391.159485,161.599823 
	C400.639862,161.779999 410.159637,161.408554 419.593018,162.152527 
	C431.345978,163.079453 438.339996,170.280655 439.827576,181.950577 
	C440.288727,185.568100 440.324036,189.256287 440.331421,192.912567 
	C440.374542,214.220917 440.437775,235.530060 440.277924,256.837311 
	C440.245819,261.115356 439.846863,265.555176 438.633789,269.627472 
	C435.591248,279.841278 427.140717,284.699402 412.858124,284.876038 
z"/>
</svg>