<?xml version="1.0" encoding="utf-8"?>
<svg xmlns="http://www.w3.org/2000/svg" viewBox="0.2413 0.408 511.8372 512.592" width="511.837px" height="512.592px">
  <path fill="#6B63FF" opacity="1.000000" stroke="none" d="M 256.813 0.408 C 277.834 0.408 272.734 1.084 279.682 1.383 C 289.316 2.081 299.361 3.994 304.905 4.975 C 326.109 8.726 346.428 15.372 365.849 24.508 C 387.173 34.54 407.283 46.729 424.413 63.078 C 436.578 74.689 448.835 86.415 459.423 99.415 C 474.551 117.99 486.353 138.81 495.078 161.269 C 502.213 179.637 508.061 198.89 509.892 218.631 C 507.725 217.284 505.758 215.467 504.149 213.861 C 463.551 173.325 422.994 132.746 382.405 92.2 C 380.775 90.572 378.897 89.192 376.775 87.488 C 375.758 87.194 375.1 87.034 374.443 87.033 C 323.223 87.015 272.003 87.004 220.783 87.038 C 219.522 87.038 218.261 87.555 216.65 88.099 C 216.198 96.612 216.096 104.857 215.996 113.102 C 215.946 117.267 216.417 121.642 215.913 125.857 C 183.656 125.953 151.341 125.789 119.54 125.832 C 111.415 125.843 111.415 125.839 111.297 134.141 C 111.292 134.474 111.294 134.807 111.293 135.14 C 111.236 230.877 111.173 326.615 111.159 422.352 C 111.159 424.276 111.869 426.125 112.337 428.332 C 135.64 451.817 158.658 475.087 181.781 498.31 C 183.293 499.829 184.595 501.556 185.593 503.101 C 184.527 502.995 183.815 503.124 183.202 502.934 C 163.605 496.841 144.727 488.974 127.092 478.493 C 102.204 463.702 80.438 445.132 61.526 423.133 C 49.352 408.972 38.778 393.714 30.175 377.257 C 16.01 350.16 6.171 321.543 2.916 290.914 C 2.842 290.216 1.221 261.98 0.558 261.345 C 0.558 239.991 0.016 270.764 0.35 249.278 C 1.115 248.474 2.783 223.377 2.92 222.649 C 4.66 213.391 5.905 204.019 8.082 194.867 C 14.248 168.949 24.511 144.622 38.566 122.036 C 52.802 99.16 70.409 79.097 90.897 61.512 C 104.937 49.461 120.056 38.982 136.347 30.395 C 163.553 16.055 192.343 6.312 223.089 2.916 C 223.788 2.839 238.602 0.633 256.813 0.408 Z" transform="matrix(1, 0, 0, 1, -3.552713678800501e-15, 0)"/>
  <path fill="#3949AB" opacity="1.000000" stroke="none" d="M 185.994 503.187 C 184.595 501.556 183.293 499.829 181.781 498.31 C 158.658 475.087 135.048 451.719 112.209 428.193 C 165.364 427.869 218.674 428.041 272.159 428.041 C 272.159 414.662 271.854 401.788 272.31 389.156 C 305.205 389.125 337.948 389.378 370.387 389.361 C 376.985 389.358 376.994 389.347 376.997 382.964 C 377.007 364.998 375.941 347.205 376.408 329.155 C 389.201 329.054 402.602 328.821 414.934 328.858 C 434.493 328.916 449.551 314.764 449.716 295.229 C 450 261.733 450.002 228.231 449.695 194.735 C 449.568 180.901 443.082 170.055 430.289 164.42 C 424.775 161.992 418.158 161.512 411.994 161.233 C 400.353 160.707 388.677 160.967 377.01 160.438 C 376.956 135.989 376.906 112.001 376.937 87.944 C 377.018 87.875 377.135 87.697 377.135 87.697 C 378.897 89.192 380.775 90.572 382.405 92.2 C 422.994 132.746 463.551 173.325 504.149 213.861 C 505.758 215.467 507.725 217.143 509.825 218.514 C 510.126 218.471 510.056 219.582 509.97 219.88 C 510.222 220.656 509.876 220.507 510.285 221.403 C 510.77 223.656 510.045 224.022 510.698 225.76 C 512.965 246.614 511.853 254.851 511.438 275.912 C 510.657 276.964 510.223 290.128 510.068 290.851 C 507.061 304.871 505.79 319.082 502.004 332.886 C 496.576 352.678 487.773 371.081 477.264 388.783 C 460.886 416.37 439.778 439.731 414.814 459.518 C 395.901 474.509 375.092 486.598 352.453 495.342 C 332.733 502.959 312.595 508.845 291.5 511.136 C 290.61 511.233 289.831 512.355 289 513 C 267.979 513 246.958 513 225.564 512.585 C 221.575 511.471 217.931 510.894 214.349 510.052 C 204.883 507.825 195.444 505.483 185.994 503.187 Z" transform="matrix(1, 0, 0, 1, -3.552713678800501e-15, 0)"/>
  <path fill="#DD5BD2" opacity="1.000000" stroke="none" d="M 272.358 389.439 C 272.358 402.051 272.159 414.662 272.159 428.041 C 218.674 428.041 165.574 428.123 112.26 428.164 C 111.487 426.281 111.159 424.276 111.159 422.352 C 111.173 326.615 111.236 230.877 111.293 135.14 C 111.294 134.807 111.292 134.474 111.297 134.141 C 111.415 125.839 111.415 125.843 119.54 125.832 C 151.341 125.789 183.141 125.743 215.878 125.714 C 234.504 125.715 252.193 125.7 270.194 125.762 C 270.931 125.816 271.356 125.792 271.831 126.25 C 271.915 138.195 272.402 149.66 271.976 161.21 C 260.531 161.1 249.082 161.396 238.117 161.954 C 224.482 162.649 209.911 176.957 209.983 192.381 C 210.15 227.685 209.826 262.994 210.294 298.294 C 210.363 303.551 212.73 309.345 215.617 313.883 C 222.279 324.352 232.429 329.177 244.914 328.313 C 249.338 328.007 250.776 329.602 250.634 333.938 C 250.385 341.59 250.071 349.257 250.13 356.917 C 250.147 359.114 250.185 362.039 250.346 364.863 C 257.882 360.916 265.28 356.667 272.004 353.605 C 272.055 365.856 272.306 377.647 272.358 389.439 Z" transform="matrix(1, 0, 0, 1, -3.552713678800501e-15, 0)"/>
  <path fill="#C35DAC" opacity="1.000000" stroke="none" d="M 271.986 161.125 C 271.951 149.66 271.915 138.195 271.69 126.059 C 271.087 125.161 270.674 124.936 270.041 124.455 C 262.117 118.853 254.43 113.483 246.705 108.168 C 236.819 101.366 226.903 94.608 217 87.831 C 218.261 87.555 219.522 87.038 220.783 87.038 C 272.003 87.004 323.223 87.015 374.443 87.033 C 375.1 87.034 375.758 87.194 376.775 87.488 C 377.135 87.697 377.018 87.875 376.669 88.129 C 375.296 89.464 374.177 90.472 373.264 91.64 C 361.822 106.289 350.348 120.914 339.011 135.645 C 332.541 144.051 326.836 152.639 320.038 161.241 C 303.891 161.266 287.675 161.195 271.986 161.125 Z" transform="matrix(1, 0, 0, 1, -3.552713678800501e-15, 0)"/>
  <path fill="#FFFEFF" opacity="1.000000" stroke="none" d=" M216.649719,88.099350 C226.902985,94.608269 236.819366,101.366211 246.705383,108.168312 C254.430176,113.483398 262.117249,118.853287 269.921967,124.689438 C269.976227,125.348610 269.929596,125.517166 269.882965,125.685730 C252.193375,125.700356 234.503799,125.714973 216.334595,125.662918 C215.901947,121.431450 215.946259,117.266624 215.996475,113.101860 C216.095856,104.857018 216.198486,96.612221 216.649719,88.099350 z" transform="matrix(1, 0, 0, 1, -3.552713678800501e-15, 0)"/>
  <path fill="#DCE1EB" opacity="1.000000" stroke="none" d="M 377.015 160.9 C 388.677 160.967 400.353 160.707 411.994 161.233 C 418.158 161.512 424.775 161.992 430.289 164.42 C 443.082 170.055 449.568 180.901 449.695 194.735 C 450.002 228.231 450 261.733 449.716 295.229 C 449.551 314.764 434.493 328.916 414.934 328.858 C 402.602 328.821 390.269 328.882 377.011 328.915 C 360.387 328.876 345.033 329.267 329.342 328.759 C 329.34 314.027 328.99 299.301 329.452 285.019 C 355.245 285.027 380.568 284.92 405.889 285.146 C 410.813 285.19 412.316 283.522 412.027 278.81 C 411.69 273.333 411.739 267.809 412.014 262.325 C 412.225 258.116 410.561 256.908 406.502 256.931 C 380.681 257.08 355.188 257.124 329.372 257.068 C 329.375 248.551 329.042 240.004 329.505 231.96 C 355.295 231.973 380.62 231.901 405.943 232.079 C 410.368 232.11 412.347 231.007 412.032 226.228 C 411.671 220.753 411.674 215.219 412.031 209.744 C 412.341 204.983 410.387 203.836 405.947 203.865 C 380.29 204.037 354.754 203.966 329.074 203.884 C 329.06 189.59 328.947 175.383 329.372 161.403 C 345.554 161.134 361.285 161.017 377.015 160.9 Z" transform="matrix(1, 0, 0, 1, -3.552713678800501e-15, 0)"/>
  <path fill="#DD5B93" opacity="1.000000" stroke="none" d="M 328.912 328.939 C 344.609 328.995 361.037 328.928 377.199 329.051 C 377.659 347.084 377.007 364.998 376.997 382.964 C 376.994 389.347 376.985 389.358 370.387 389.361 C 337.948 389.378 305.14 389.332 272.245 389.363 C 272.288 377.537 271.849 366.008 272.064 353.617 C 281.925 347.973 291.814 342.937 301.237 337.694 C 309.934 332.855 318.287 327.664 328.912 328.939 Z" transform="matrix(1, 0, 0, 1, -3.552713678800501e-15, 0)"/>
  <path fill="#B75799" opacity="1.000000" stroke="none" d="M 377.01 160.438 C 361.285 161.017 345.554 161.134 328.927 161.356 C 325.343 161.357 322.655 161.251 319.967 161.146 C 326.307 152.639 332.541 144.051 339.011 135.645 C 350.348 120.914 361.822 106.289 373.264 91.64 C 374.177 90.472 375.675 88.934 376.966 87.668 C 377.285 111.471 376.956 135.989 377.01 160.438 Z" transform="matrix(1, 0, 0, 1, -3.552713678800501e-15, 0)"/>
  <path fill="#6B63FF" opacity="1.000000" stroke="none" d=" M509.970184,218.219391 C510.363556,218.390106 510.671143,218.859177 510.937469,219.638855 C510.558960,219.472214 510.221710,218.994965 509.970184,218.219391 z" transform="matrix(1, 0, 0, 1, -3.552713678800501e-15, 0)"/>
  <path fill="#FFFFFF" opacity="1.000000" stroke="none" d="M 319.509 161.241 C 322.655 161.251 325.869 160.941 329.002 161.093 C 329.163 174.967 328.973 189.209 329.002 203.522 C 329.006 204.009 329.039 204.047 328.567 204.021 C 303.292 203.983 278.488 204.049 253.685 203.885 C 249.453 203.856 247.6 204.972 247.85 209.498 C 248.17 215.307 248.059 221.151 247.881 226.972 C 247.773 230.503 248.861 232.073 252.681 232.05 C 278.149 231.901 303.618 231.918 329.076 231.901 C 329.065 231.921 329.039 231.958 329.039 231.958 C 329.042 240.004 329.045 248.05 329.055 256.586 C 329.062 257.075 329.084 257.115 328.61 257.083 C 303.165 257.035 278.195 257.097 253.227 256.929 C 248.997 256.9 247.696 258.451 247.865 262.477 C 248.11 268.293 248.108 274.134 247.868 279.951 C 247.703 283.939 249.313 285.109 253.139 285.087 C 278.441 284.944 303.743 284.972 329.029 284.963 C 329.013 284.982 328.982 285.021 328.982 285.021 C 328.99 299.301 328.998 313.581 329 328.313 C 318.369 327.49 309.934 332.855 301.237 337.694 C 291.814 342.937 282.188 347.815 272.328 352.999 C 265.28 356.667 258.555 360.188 251.019 364.135 C 250.858 361.311 250.641 359.114 250.624 356.917 C 250.565 349.257 250.385 341.59 250.634 333.938 C 250.776 329.602 249.338 328.007 244.914 328.313 C 232.429 329.177 222.279 324.352 215.617 313.883 C 212.73 309.345 210.363 303.551 210.294 298.294 C 209.826 262.994 210.15 227.685 209.983 192.381 C 209.911 176.957 224.482 162.649 238.117 161.954 C 249.082 161.396 260.08 161.49 271.525 161.21 C 287.675 161.195 303.363 161.266 319.509 161.241 Z" transform="matrix(1, 0, 0, 1, -3.552713678800501e-15, 0)"/>
  <path fill="#AFB4C8" opacity="1.000000" stroke="none" d="M 328.667 203.945 C 354.31 203.917 380.29 204.037 405.947 203.865 C 410.387 203.836 412.341 204.983 412.031 209.744 C 411.674 215.219 411.671 220.753 412.032 226.228 C 412.347 231.007 410.368 232.11 405.943 232.079 C 380.62 231.901 355.295 231.973 329.505 231.96 C 329.039 231.958 329.065 231.921 329.066 231.442 C 329.058 221.992 329.048 213.019 329.039 204.047 C 329.039 204.047 328.683 203.965 328.667 203.945 Z" transform="matrix(1, 0, 0, 1, -3.552713678800501e-15, 0)"/>
  <path fill="#AFB4C8" opacity="1.000000" stroke="none" d=" M329.048767,257.056702 C354.858063,257.025665 380.680695,257.080353 406.502167,256.931366 C410.561279,256.907959 412.224670,258.116058 412.013824,262.325165 C411.739105,267.809021 411.690277,273.332916 412.026581,278.809967 C412.315918,283.522125 410.813110,285.190338 405.888855,285.146393 C380.568268,284.920380 355.244720,285.026733 329.451965,285.019073 C328.981720,285.021118 329.012939,284.982361 329.029236,284.499512 C329.058441,275.049377 329.071320,266.082031 329.084229,257.114716 C329.084229,257.114716 329.061737,257.075287 329.048767,257.056702 z" transform="matrix(1, 0, 0, 1, -3.552713678800501e-15, 0)"/>
  <path fill="#CDD2E1" opacity="1.000000" stroke="none" d="M 329.069 204.021 C 329.053 213.019 329.131 222.687 329.15 232.117 C 303.691 232.035 278.149 231.901 252.681 232.05 C 248.861 232.073 247.773 230.503 247.881 226.972 C 248.059 221.151 248.17 215.307 247.85 209.498 C 247.6 204.972 249.453 203.856 253.685 203.885 C 278.488 204.049 303.793 203.983 329.069 204.021 Z" transform="matrix(1, 0, 0, 1, -3.552713678800501e-15, 0)"/>
  <path fill="#CDD2E1" opacity="1.000000" stroke="none" d="M 329.118 257.083 C 329.58 266.082 329.058 275.049 329.045 284.481 C 303.743 284.972 278.441 284.944 253.139 285.087 C 249.313 285.109 247.703 283.939 247.868 279.951 C 248.108 274.134 248.11 268.293 247.865 262.477 C 247.696 258.451 248.997 256.9 253.227 256.929 C 278.195 257.097 303.674 257.035 329.118 257.083 Z" transform="matrix(1, 0, 0, 1, -3.552713678800501e-15, 0)"/>
</svg>