<?xml version="1.0" encoding="utf-8"?>
<svg xmlns="http://www.w3.org/2000/svg" viewBox="20.8734 110.4445 693.9858 137.5643" width="693.986px" height="137.564px">
  <path d="M 140.988 185.697 C 131.259 187.154 122.127 190.176 112.424 186.779 C 106.083 184.56 102.042 176.83 103.139 172.388 C 104.948 165.054 108.561 160.782 117.059 160.062 C 123.843 159.487 130.861 159.463 137.308 157.606 C 151.466 153.526 162.801 139.876 164.298 123.606 C 166.041 104.669 155.688 89.824 141.107 83.195 C 135.666 80.72 129.209 79.633 123.161 79.427 C 108.064 78.911 92.936 79.265 77.82 79.263 C 68.721 79.262 62.817 74.032 62.155 66.459 C 61.331 57.038 69.043 51.131 77.187 51.025 C 92.454 50.826 107.742 50.537 122.992 51.08 C 137.852 51.61 151.865 55.275 164.227 64.248 C 179.157 75.087 188.507 89.403 191.71 107.248 C 195.584 128.83 190.636 148.274 175.418 164.818 C 166.029 175.024 155.256 182.763 140.988 185.697 Z" stroke="none" opacity="1.000000" fill="#7D59F3" style="" transform="matrix(0.9999999999999999, 0, 0, 0.9999999999999999, -39.42259979248047, 59.67679977416992)"/>
  <path d="M 475.862 68.185 C 495.048 63.88 512.447 66.846 528.314 77.996 C 531.701 80.376 533.133 83.353 532.802 87.362 C 532.328 93.105 527.399 96.389 522.144 94.071 C 516.159 91.431 510.604 87.58 504.416 85.695 C 482.274 78.951 460.572 90.128 459.734 116.655 C 459.496 124.175 459.49 131.846 460.706 139.234 C 463.086 153.686 472.881 164.797 490.285 165.146 C 500.259 165.347 508.928 162.596 517.275 157.439 C 520.142 155.668 524.459 154.174 527.423 154.996 C 534.04 156.831 534.619 166.151 529.058 170.604 C 510.396 185.549 480.999 186.638 461.804 175.178 C 450.537 168.452 443.139 158.394 439.801 145.774 C 436.053 131.606 435.694 117.288 439.997 103.15 C 445.444 85.251 456.863 73.123 475.862 68.185 Z" stroke="none" opacity="1.000000" fill="white" style="" transform="matrix(0.9999999999999999, 0, 0, 0.9999999999999999, -39.42259979248047, 59.67679977416992)"/>
  <path d="M 593.145 172.758 C 593.001 158.784 593.024 145.188 592.849 131.592 C 592.811 128.584 592.339 125.516 591.587 122.598 C 590.556 118.598 587.751 115.784 583.662 115.093 C 569.239 112.656 559.798 120.179 559.592 134.139 C 559.421 145.748 559.583 157.362 559.559 168.974 C 559.546 175.238 556.161 179.441 550.824 179.943 C 544.456 180.543 540.489 177.653 538.942 171.22 C 538.624 169.898 538.301 168.534 538.299 167.19 C 538.257 137.244 538.209 107.297 538.285 77.351 C 538.308 68.475 542.542 64.076 550.195 64.425 C 555.923 64.687 559.53 68.368 559.553 74.118 C 559.597 84.66 559.572 95.203 559.594 105.745 C 559.596 106.605 559.742 107.463 559.823 108.339 C 563.962 105.653 567.611 102.529 571.83 100.696 C 583.041 95.827 602.521 97.105 608.602 109.132 C 611.068 114.011 612.835 119.724 613.058 125.134 C 613.654 139.623 613.245 154.154 613.234 168.668 C 613.229 175.139 611.042 178.473 605.953 179.774 C 601.058 181.025 595.829 178.294 593.145 172.758 Z" stroke="none" opacity="1.000000" fill="white" style="" transform="matrix(0.9999999999999999, 0, 0, 0.9999999999999999, -39.42259979248047, 59.67679977416992)"/>
  <path d="M 263.592 170.124 C 250.008 180.805 224.939 180.8 211.767 170.914 C 202.595 164.032 198.059 154.961 196.684 143.837 C 195.497 134.234 196.718 125.21 200.975 116.463 C 206.613 104.876 216.259 98.506 228.59 96.798 C 238.619 95.409 248.883 95.786 258.168 100.99 C 268.741 106.916 275.18 115.886 276.78 127.771 C 278.45 140.194 277.933 152.439 269.983 163.11 C 268.17 165.544 265.893 167.641 263.592 170.124 M 239.467 112.034 C 230.779 111.685 223.419 114.19 219.813 122.625 C 215.966 131.622 215.761 141.011 219.245 150.205 C 222.283 158.221 229.116 162.759 236.807 162.453 C 246.061 162.085 252.528 157.744 254.946 149.155 C 256.325 144.258 257.321 138.875 256.764 133.901 C 255.469 122.356 252.034 114.287 239.467 112.034 Z" stroke="none" opacity="1.000000" fill="white" style="" transform="matrix(0.9999999999999999, 0, 0, 0.9999999999999999, -39.42259979248047, 59.67679977416992)"/>
  <path d="M 640.213 117.469 C 637.434 118.525 634.904 119.265 632.576 120.408 C 628.941 122.192 625.749 121.343 623.513 118.492 C 620.996 115.284 620.929 111.129 623.923 108.438 C 627 105.671 630.879 103.359 634.814 102.026 C 647.417 97.758 660.296 96.667 673.188 100.981 C 683.668 104.488 688.684 112.685 689.368 122.805 C 690.404 138.148 690.326 153.574 690.419 168.965 C 690.443 172.951 689.138 176.884 685.114 179.003 C 681.271 181.027 677.317 180.228 674.27 177.781 C 672.077 176.019 670.939 172.97 669.259 170.386 C 660.65 181.134 648.936 182.747 636.375 178.198 C 621.688 172.88 614.806 157.955 622.529 144.261 C 626.107 137.919 632.417 135.449 638.947 134.488 C 647.564 133.22 656.351 132.909 665.079 132.63 C 668.742 132.513 670.269 131.71 670.232 127.775 C 670.131 117.179 663.087 112.034 651.2 114.426 C 647.6 115.151 644.098 116.351 640.213 117.469 M 669.115 143.859 C 661.269 142.972 653.536 143.305 645.974 145.826 C 641.433 147.339 639.973 150.65 640.288 155.037 C 640.718 161.025 645.135 165.146 651.522 165.462 C 663.043 166.033 672.331 154.866 669.115 143.859 Z" stroke="none" opacity="1.000000" fill="white" style="" transform="matrix(0.9999999999999999, 0, 0, 0.9999999999999999, -39.42259979248047, 59.67679977416992)"/>
  <path d="M 407.489 171.331 C 398.407 182.021 376.017 182.107 365.941 172.56 C 359.717 166.662 357.558 158.723 357.363 150.514 C 357.034 136.62 357.255 122.713 357.305 108.812 C 357.327 102.527 360.754 98.234 365.979 97.715 C 372.271 97.089 376.424 99.985 377.822 106.4 C 378.429 109.187 378.521 112.122 378.543 114.991 C 378.629 125.991 378.573 136.99 378.605 147.989 C 378.632 157.137 382.085 162.001 389.018 162.761 C 398.881 163.844 406.998 159.262 409.024 151.211 C 409.722 148.441 410.003 145.51 410.036 142.647 C 410.156 132.414 410.049 122.177 410.124 111.943 C 410.138 109.99 410.418 108 410.873 106.096 C 412.491 99.328 416.024 96.9 422.818 97.703 C 427.663 98.276 431.346 102.764 431.377 108.552 C 431.454 123.369 431.405 138.188 431.4 153.006 C 431.399 158.352 431.467 163.701 431.343 169.046 C 431.247 173.141 429.528 176.462 425.646 178.265 C 421.298 180.285 416.916 179.687 413.642 176.486 C 411.787 174.672 411.259 171.525 409.645 167.872 C 409.074 168.827 408.394 169.965 407.489 171.331 Z" stroke="none" opacity="1.000000" fill="white" style="" transform="matrix(0.9999999999999999, 0, 0, 0.9999999999999999, -39.42259979248047, 59.67679977416992)"/>
  <path d="M 693.425 105.893 C 695.315 100.887 699.184 100.58 703.424 100.684 C 709.754 100.839 709.679 100.743 709.806 94.464 C 709.874 91.13 709.939 87.741 710.577 84.488 C 711.698 78.774 716.125 75.413 721.163 75.944 C 727.25 76.585 730.864 80.421 731.055 86.585 C 731.155 89.791 731.238 93.013 731.041 96.21 C 730.838 99.51 731.958 101.014 735.487 100.78 C 738.867 100.556 742.274 100.676 745.668 100.738 C 749.904 100.815 752.651 102.944 753.609 107.015 C 754.413 110.429 752.047 114.359 748.071 115.166 C 743.91 116.011 739.556 116.168 735.286 116.17 C 732.044 116.172 730.992 117.308 731.035 120.466 C 731.178 130.857 731.068 141.251 731.093 151.644 C 731.113 160.68 735.116 164.704 744.347 164.846 C 748.445 164.908 752.183 165.659 753.794 169.882 C 755.597 174.603 752.238 179.904 746.418 180.19 C 735.501 180.727 724.779 179.521 716.575 171.054 C 710.941 165.239 710.182 157.648 709.874 150.212 C 709.47 140.448 709.635 130.651 709.84 120.874 C 709.917 117.22 708.619 115.806 705.033 116.24 C 704.121 116.351 703.179 116.302 702.258 116.232 C 695.783 115.736 691.858 111.9 693.425 105.893 Z" stroke="none" opacity="1.000000" fill="white" style="" transform="matrix(0.9999999999999999, 0, 0, 0.9999999999999999, -39.42259979248047, 59.67679977416992)"/>
  <path d="M 304.454 129.138 C 304.66 136.129 303.713 143.036 305.344 149.282 C 308.878 162.812 319.281 164.484 330.694 162.016 C 333.892 161.323 336.842 159.335 339.792 157.734 C 343.842 155.536 348.362 155.847 350.728 158.707 C 353.709 162.313 353.505 167.221 349.715 170.624 C 344.31 175.477 337.57 177.747 330.499 178.75 C 320.46 180.175 310.577 179.75 301.359 174.808 C 290.022 168.73 284.027 158.771 282.522 146.639 C 280.894 133.505 282.805 120.805 292.06 110.165 C 298.066 103.261 305.774 99.088 314.602 98.054 C 325.172 96.816 335.876 97.272 345.471 102.934 C 347.537 104.154 349.454 105.86 350.958 107.724 C 353.761 111.197 353.002 114.995 350.627 118.298 C 348.218 121.649 344.829 121.03 341.477 119.644 C 336.978 117.783 332.607 115.117 327.917 114.316 C 315.479 112.189 308.059 117.684 304.454 129.138 Z" stroke="none" opacity="1.000000" fill="white" style="" transform="matrix(0.9999999999999999, 0, 0, 0.9999999999999999, -39.42259979248047, 59.67679977416992)"/>
  <path d="M 60.296 101.691 C 61.942 93.86 67.225 89.181 74.941 89.922 C 82.941 90.691 87.43 94.664 88.242 102.24 C 88.631 105.872 88.315 109.578 88.315 113.251 C 88.315 130.369 87.944 147.499 88.508 164.599 C 88.717 170.941 89.014 176.651 84.109 181.478 C 77.442 188.041 63.545 186.271 60.402 174.144 C 60.43 173.084 60.495 172.67 60.75 171.936 C 61.074 170.87 61.327 170.125 61.328 169.378 C 61.353 148.3 61.364 127.221 61.317 106.143 C 61.315 104.976 60.807 103.809 60.476 102.404 C 60.377 102.008 60.336 101.85 60.296 101.691 Z" stroke="none" opacity="1.000000" fill="#DC5BD2" style="" transform="matrix(0.9999999999999999, 0, 0, 0.9999999999999999, -39.42259979248047, 59.67679977416992)"/>
</svg>